<svg xmlns="http://www.w3.org/2000/svg" xmlns:xlink="http://www.w3.org/1999/xlink" width="34" height="34" viewBox="0 0 34 34"><defs><clipPath id="b"><rect width="34" height="34"/></clipPath></defs><g id="a"><path d="M733.5-302.422l18.073,15.486,14.1-9.392v-1.62L733.5-304.027Z" transform="translate(-732.621 317.048)" fill="#434343"/><path d="M1223.5-1133.647l18.118,15.388,14.114-9.271-18.261-15.21Z" transform="translate(-1222.621 1146.628)" fill="gray"/><path d="M5.966-5.683H7.338a4.831,4.831,0,0,0,2.878-.706,2.4,2.4,0,0,0,.955-2.055,2.438,2.438,0,0,0-.8-2.011,3.956,3.956,0,0,0-2.508-.65h-1.9Zm9.415-2.9A5.4,5.4,0,0,1,13.4-4.071,8.939,8.939,0,0,1,7.755-2.51H5.966v6.5H1.8V-14.277H8.078a8.815,8.815,0,0,1,5.441,1.43A5.043,5.043,0,0,1,15.382-8.581Z" transform="matrix(0.67, -0.435, 0.714, 0.598, 15.317, 22.863)" fill="#e5e5e5"/></g></svg>