<svg xmlns="http://www.w3.org/2000/svg" xmlns:xlink="http://www.w3.org/1999/xlink" width="32" height="32" viewBox="0 0 32 32"><defs><linearGradient id="a" x1="0.5" x2="0.5" y2="1" gradientUnits="objectBoundingBox"><stop offset="0" stop-color="#8a6d00"/><stop offset="1" stop-color="#f1bf00"/></linearGradient><clipPath id="c"><rect width="32" height="32"/></clipPath></defs><g id="b"><g transform="translate(0.796 4.408)"><path d="M-10008-10482.843l16.188,10.105,13.515-10.105-16.512-8.157Z" transform="translate(10008 10493.885)" fill="#ffdc00"/><path d="M-9906.379-10481.035l8.623,4.981.145-4.981-8.771-4.782Z" transform="translate(9914.058 10492.352)" fill="#d6a900"/><path d="M-9888.85-10475.07l5.781-4.144v-4.669l-5.781,3.848Z" transform="translate(9905.154 10491.461)" fill="#a48700"/><path d="M-9906.28-10489l8.7,4.788,5.612-3.837-8.653-4.337Z" transform="translate(9914.016 10495.641)" fill="#fff69f"/><path d="M-9902.63-10487.994l5.228,2.607,3.594-2.426-4.818-2.471Z" transform="translate(9912.163 10494.567)" fill="#f29d00"/><path d="M1.23-14.7a1.76,1.76,0,0,1,.957.284c.117.054.272,7.749.272,7.968,0,.421-.55.764-1.23.764S0-6.028,0-6.451c0-.122.046-7.727.24-7.942A1.415,1.415,0,0,1,1.23-14.7Z" transform="translate(17.216 14.703)" fill="url(#a)"/><path d="M.722-.412c.407,0,.734.114.734.254S1.129.1.722.1-.017-.016-.017-.158.313-.412.722-.412Z" transform="translate(17.717 0.56)" fill="#504200"/></g></g></svg>