<svg xmlns="http://www.w3.org/2000/svg" xmlns:xlink="http://www.w3.org/1999/xlink" width="32" height="32" viewBox="0 0 32 32"><defs><clipPath id="b"><rect width="32" height="32"/></clipPath></defs><g id="a"><g transform="translate(0.795 5.408)"><path d="M-10008-10482.914l16.191,10,13.512-10-16.52-8.08Z" transform="translate(10008.002 10493.75)" fill="#660090"/><path d="M-9906.381-10484.037l8.623,4.932.007-11.116-8.751-4.479Z" transform="translate(9914.063 10495.162)" fill="#9a0ad6"/><path d="M-9888.85-10478.244l5.781-4.1v-12.535l-4.4,2.859-1.393,2.635Z" transform="translate(9905.157 10494.277)" fill="#7902ab"/><path d="M-9905.352-10489.791l9.012,4.674,4.421-2.923-8.732-4.233Z" transform="translate(9914.057 10487.453)" fill="#d078f5"/><path d="M-9750.371-10484.5l8.645,4.572v4.243l-8.645-4.645Z" transform="translate(9758.059 10489.511)" fill="#64028d"/><path d="M-9750.558-10483.292l8.831,4.556v3.052l-8.645-4.645Z" transform="translate(9758.059 10484.511)" fill="#64028d"/><path d="M-9732.8-10478.926l5.771-3.8v3.8l-5.771,4.074Z" transform="translate(9749.131 10488.658)" fill="#310146"/><path d="M-9732.8-10478.926l5.771-3.8v2.972l-5.771,3.865Z" transform="translate(9749.131 10484.658)" fill="#310146"/><path d="M7.546.5l1.178-2.82,9.055,4.653L16.294,4.94Z" fill="#c65af3"/></g></g></svg>