<svg xmlns="http://www.w3.org/2000/svg" xmlns:xlink="http://www.w3.org/1999/xlink" width="32" height="32" viewBox="0 0 32 32"><defs><clipPath id="b"><rect width="32" height="32"/></clipPath></defs><g id="a"><g transform="translate(1.488 6.767)"><path d="M-10008-10482.843l16.188,10.105,13.515-10.105-16.512-8.157Z" transform="translate(10008 10492.43)" fill="#023b0a"/></g><g transform="translate(0.07 5.378)"><path d="M-9991.4-10491.047l9.246,5.405v-12.851l-9.246-4.459Z" transform="translate(9999.999 10500.713)" fill="#00b41a"/><path d="M-9989.369-10489.7l9.393,4.865v-.825l-9.393-4.784Z" transform="translate(9997.979 10494.326)" fill="#00580d"/><path d="M-9989.369-10486.715l9.393,4.873v-3.817l-9.393-4.784Z" transform="translate(9997.979 10489.326)" fill="#00580d"/><path d="M-9989.369-10489.7l9.393,4.865v-.825l-9.393-4.784Z" transform="translate(9997.979 10495.716)" fill="#00580d"/><path d="M-9989.369-10489.7l9.393,5.007.067-.864-9.46-4.887Z" transform="translate(9997.979 10497.104)" fill="#00580d"/><path d="M-9977.839-10492.07l5.7-3.98.236-12.183-5.937,3.422Z" transform="translate(9995.686 10507.154)" fill="#004b12"/><path d="M-9991.34-10490.063l9.324,4.668,5.832-3.4-9.379-4.062Z" transform="translate(9999.961 10487.854)" fill="#02ff26"/><path d="M34.45,18.577l5.734-3.356-.077.828L34.45,19.42Z" transform="translate(-16.499 -9.941)" fill="#002612"/><path d="M34.45,18.577l5.734-3.356v3.356L34.45,22.112Z" transform="translate(-16.499 -14.941)" fill="#002612"/><path d="M34.45,18.577l5.734-3.356-.077.828L34.45,19.42Z" transform="translate(-16.499 -8.552)" fill="#002612"/><path d="M34.45,18.577l5.734-3.356-.077.828L34.45,19.42Z" transform="translate(-16.499 -7.163)" fill="#002612"/><path d="M34.45,18.577l5.734-3.356-.077.828L34.45,19.42Z" transform="translate(-16.499 -5.775)" fill="#002612"/><path d="M10.044,10.117V8.992L13.1,10.7l.1,1.23Z" transform="translate(1 1)" fill="#00580d"/><path d="M-9991.4-10501.528l1.584.736v-1.512l-1.584-.647Z" transform="translate(10002.998 10499.874)" fill="#00b41a"/><path d="M-9991.4-10501.528l1.584.736v-1.512l-1.584-.647Z" transform="translate(10006.998 10501.874)" fill="#00b41a"/><path d="M-9977.839-10506.218l.977-.551v-1.5l-.977.563Z" transform="translate(9991.022 10505.302)" fill="#004b12"/><path d="M-9977.839-10506.218l.977-.551v-1.5l-.977.563Z" transform="translate(9995.022 10507.302)" fill="#004b12"/><path d="M-9991.34-10492.512l1.594.643.969-.511-1.584-.568Z" transform="translate(10002.942 10489.439)" fill="#9dffab"/><path d="M-9991.34-10492.512l1.594.643.969-.511-1.584-.568Z" transform="translate(10006.942 10491.439)" fill="#9dffab"/></g></g></svg>