<svg xmlns="http://www.w3.org/2000/svg" xmlns:xlink="http://www.w3.org/1999/xlink" width="26" height="26"
    viewBox="0 0 26 26">
    <g transform="translate(3.564 4.035)">
        <path
            d="M95.218,881.713v-3.587l-2.4,2.579-3.25-3.256,2.58-2.767H88.436v-4.687h3.457l-2.484-2.489,3.142-3.37,2.667,2.672v-3.843h4.521v3.572l2.395-2.568,3.25,3.256-2.583,2.77h3.722v4.687h-3.446l2.478,2.483-3.146,3.367-2.67-2.676v3.857Z"
            transform="translate(-88.436 -862.965)" fill="#e56333" />
        <path
            d="M9478.84-29.554h2.415V-31h1.208v1.443h2.949v1.318h-2.548a2.885,2.885,0,0,0-.4,1.277,2.508,2.508,0,0,0,.4,1.215,2.007,2.007,0,0,1,.67,1.023c.2.69-.2,2.071-1.071,2.2a5.445,5.445,0,0,0-2.014,1.067,3.838,3.838,0,0,1,.806-1.067c.738-.816,1.475-1,1.208-1.82s-1.074-1.381-1.208-2.008a8.316,8.316,0,0,1,0-1.883h-2.415Z"
            transform="translate(-9473.102 36.091)" fill="#fff" />
    </g>
</svg>