<svg version="1.1" viewBox="0 0 36 36" xmlns="http://www.w3.org/2000/svg">
  <defs>
    <clipPath id="clip-Healthcare">
      <rect width="26" height="28"/>
    </clipPath>
  </defs>
  <g id="Healthcare" transform="matrix(1.2683 0 0 1.2732 1.512 .17379)" clip-path="url(#clip-Healthcare)">
    <g transform="translate(4.327,4.486)" data-name="Group 2727">
      <path transform="translate(-39.628 948.33)" d="m39.628-943.49 2.184-0.892 2.9 1.857-2.152 1.458z" fill="#8a3414" data-name="Path 3616"/>
      <path transform="translate(-34.993 947.42)" d="m38.466-931.18 2.906-1.86s-1.075-1.44-1.223-1.249-1.683 3.109-1.683 3.109z" fill="#b74e28" data-name="Path 3615"/>
      <g fill="#8a3414">
        <path transform="translate(-25.628 947.24)" d="m34.211-927.55 3.173-2.171-3.739-2.618z" data-name="Path 3614"/>
        <path transform="translate(-33.156 948.77)" d="m36.629-947.86 2.847-1.36 2.6 3.764-3.291 1.858z" data-name="Path 3613"/>
        <path transform="translate(-25.837 948.63)" d="m37.847-947.69v3.5l-3.759 2.818v-4.829z" data-name="Path 3612"/>
        <path transform="translate(-19.101 947.88)" d="m36.447-937.94-4.112-1.414-2.969 1.832 3.673 1.586z" data-name="Path 3611"/>
        <path transform="translate(-19.466 947.42)" d="m32.693-929.19 2.534-1.807-1.531-3.39-3.324 1.162z" data-name="Path 3610"/>
      </g>
      <path transform="translate(-31.485 948.64)" d="m45.65-932.9v-4.09l-2.9-1.216 2.02-1.507-2.02-4.09-2.64 1.507v-3.734l-3.261-1.722v3.229l-1.849-3.227-2.64 1.722 2.64 3.735-3.515-1.507v4.09l2.983 1.507-2.112 1.216 2.644 4.587 1.848-2v3.95l3.261 1.507v-3.457l2.64 3.455 2.02-1.507-2.02-3.95z" fill="#e56333" data-name="Path 3605"/>
      <path transform="translate(-30.801 948.12)" d="m40.57-937.85v-1.561l-1.584-0.646v-1.367l-1.677-0.646v1.442l-1.848-0.8v1.367l1.848 0.646v1.937a5.283 5.283 0 0 1 0.985 1.7c0.617 1.4-3.167 1.862-3.167 1.862s4.686-0.171 4.488-1.568a4.827 4.827 0 0 0-0.63-2v-0.9z" fill="#fff" data-name="Path 3606"/>
      <path transform="translate(-15.177,947.73)" d="m29.342-931.98 3.1-2.263v-3.515l-3.1 1.687z" fill="#8a3414" data-name="Path 3607"/>
      <path transform="translate(-18.9 948.41)" d="m32.105-939.42 3.321-1.772-1.991-4.1-3.335 1.734z" fill="#8a3414" data-name="Path 3608"/>
      <path transform="translate(-28.76 948.79)" d="m37.3-946.24 3.472-1.62-3.472-1.6-3.231 1.6z" fill="#faa182" data-name="Path 3609"/>
    </g>
  </g>
</svg>
