<svg xmlns="http://www.w3.org/2000/svg" xmlns:xlink="http://www.w3.org/1999/xlink" width="64" height="64" viewBox="0 0 64 64"><defs><clipPath id="b"><rect width="64" height="64"/></clipPath></defs><g id="a"><rect width="38" height="54" rx="5" transform="translate(13 4)" fill="#b66842"/><ellipse cx="11.5" cy="12" rx="11.5" ry="12" transform="translate(21 28)" fill="#444"/><path d="M4268.6,1838.354a6,6,0,0,1-5.916-3.978c-.792-2.5,2.273-6.918,2.273-6.918a7.856,7.856,0,0,0,.681,2.248,4.5,4.5,0,0,0,1.322,1.47,2.473,2.473,0,0,0,1.639-2.431,8.2,8.2,0,0,0-.217-2.637,13.793,13.793,0,0,0-1.907-3.442s4.692,2.119,6.289,4.792,2.028,5.183.894,7.423S4271.277,1838.354,4268.6,1838.354Z" transform="translate(-4235.921 -1790.666)" fill="#ffdf12"/></g></svg>