<svg xmlns="http://www.w3.org/2000/svg" xmlns:xlink="http://www.w3.org/1999/xlink" width="26" height="26" viewBox="0 0 26 26"><defs><clipPath id="b"><rect width="26" height="26"/></clipPath></defs><g id="a"><path d="M-462.657,791.888c1.813.808,6.835.657,9.591.374a1.742,1.742,0,0,0,1.748-2c-.317-1.248-2.123-1.143-2.123-1.143s1.093-3.047-2.852-3.258-4.894,2.131-4.726,2.906a2.9,2.9,0,0,0-1.638.165,1.325,1.325,0,0,0-.457,1.08S-464.47,791.08-462.657,791.888Z" transform="translate(471.539 -781.984)" fill="#92be00"/><path d="M-462.657,794.758c1.813,1.192,6.835.969,9.591.551,1.883-.285,1.794-2.629,1.748-2.953a1.978,1.978,0,0,0-2.123-1.685s1.093-4.494-2.852-4.805a4.119,4.119,0,0,0-4.726,4.286s-1.135-.275-1.638.243a2.538,2.538,0,0,0-.457,1.594A1.779,1.779,0,0,0-462.657,794.758Z" transform="translate(466 -777.304)" fill="#acde04"/><path d="M-462.657,793.4c1.813,1.011,6.835.821,9.591.467a2.145,2.145,0,0,0,1.748-2.5c-.317-1.561-2.123-1.429-2.123-1.429s1.093-3.811-2.852-4.075-4.894,2.666-4.726,3.634c0,0-1.135-.234-1.638.206a1.908,1.908,0,0,0-.457,1.351A1.383,1.383,0,0,0-462.657,793.4Z" transform="translate(475.496 -774.467)" fill="#cbff1a"/></g></svg>