<svg xmlns="http://www.w3.org/2000/svg" viewBox="0 0 1499.18 1499.18"><defs><style>.cls-1{fill:#6aff4e;}.cls-1,.cls-2,.cls-3,.cls-4,.cls-5,.cls-6,.cls-7{fill-rule:evenodd;}.cls-2{fill:#274100;}.cls-3{fill:#afafaf;}.cls-4{fill:#78c6e2;}.cls-5{fill:#ff2721;}.cls-6{fill:#ffa021;}.cls-7{fill:#ffdfb3;}</style></defs><g id="Layer_2" data-name="Layer 2"><g id="Layer_1-2" data-name="Layer 1"><g id="pohja---panel"><g id="Border"><path class="cls-1" d="M1499.18,299.84C1499.18,134.35,1364.84,0,1199.35,0H299.84C134.35,0,0,134.35,0,299.84v899.51c0,165.49,134.35,299.83,299.84,299.83h899.51c165.49,0,299.83-134.34,299.83-299.83Z"/></g><g id="BG"><path class="cls-2" d="M1417.4,321c0-132.8-107.83-240.61-240.62-240.61H321.27C188.48,80.41,80.66,188.22,80.66,321v857.79c0,132.8,107.82,240.61,240.61,240.61h855.51c132.79,0,240.62-107.81,240.62-240.61Z"/></g></g><g id="FireSafetySprinklerSystem"><path class="cls-3" d="M447.86,169.94H329.27V82.05h819.37v87.89h-84.09l-3.47,248.2L924.63,532.37h6.28A16.65,16.65,0,0,1,947.55,549V582.3a16.65,16.65,0,0,1-16.64,16.64h-352a16.69,16.69,0,0,1-16.69-16.64V549a16.69,16.69,0,0,1,16.69-16.64H585L442.71,438.3ZM688,532.37H821.78L990.3,397.19l5.34-227.25H971.27v29.39a22,22,0,0,1-21.94,21.93h-94.5V326.17a45.1,45.1,0,0,1-45.09,45.05h-90.1a45.06,45.06,0,0,1-45-45.05V221.26H559A22,22,0,0,1,537,199.33V169.94H516.91l-2.25,245.11Z"/><path class="cls-4" d="M785.75,1188H730.52v215h55.23Zm0-252.31H730.52v215h55.23Zm0-252.35H730.52v215h55.23Z"/><path class="cls-4" d="M1061.05,1154.44l-55.16,18.17,67.69,205.45,55.16-18.17ZM981.62,913.37l-55.16,18.17,67.68,205.4,55.16-18.17ZM902.18,672.24,847,690.42l67.69,205.45,55.16-18.18Z"/><path class="cls-4" d="M1237.32,533.82l.09,55.78h179.84l-.09-55.77Zm-250.07.41.09,55.77,213.07-.34-.09-55.78Z"/><path class="cls-4" d="M1365.5,925.65l-41.71,52,93.72,75.45.06-85.5S1383.06,939.73,1365.5,925.65ZM1171.06,769.77l-41.71,52L1295,954.61l41.71-52ZM976.57,613.86l-41.71,52,165.72,132.84,41.7-52Z"/><path class="cls-4" d="M438.49,1153.43l55.16,18.18L426,1377.06l-55.16-18.18Zm79.42-241.07,55.17,18.17L505.4,1135.94l-55.16-18.18Zm79.45-241.12,55.16,18.17L584.83,894.86l-55.16-18.17Z"/><path class="cls-4" d="M262.22,532.81l-.09,55.78-179.85,0,.09-55.78Zm250.07.41L512.2,589l-213.08-.35.09-55.77Z"/><path class="cls-4" d="M134,924.65l41.7,52L82,1052.13l0-85.5S116.48,938.73,134,924.65ZM328.48,768.77l41.71,52L204.52,953.61l-41.71-52ZM523,612.86l41.71,52L399,797.73l-41.71-52Z"/><path class="cls-5" d="M720.27,776.93c54.53,222.51-161,259.62-151.22,445,5.45,102.64,93.15,185.92,195.77,185.92s181.49-83.28,176-185.92C931,1036.55,825.61,906.48,720.27,776.93Z"/><path class="cls-6" d="M768.29,952.48c17.54,153.14-162,208.93-162,306.23a140.81,140.81,0,1,0,281.61,0C887.89,1161.41,828.09,1035.21,768.29,952.48Z"/><path class="cls-7" d="M788.59,1071.94C787.16,1183.62,646,1207.12,646,1295.3a99.8,99.8,0,0,0,199.59,0C845.6,1207.12,817.11,1133.71,788.59,1071.94Z"/></g></g></g></svg>