<svg xmlns="http://www.w3.org/2000/svg" xmlns:xlink="http://www.w3.org/1999/xlink" width="26" height="26" viewBox="0 0 26 26"><defs><clipPath id="b"><rect width="26" height="26"/></clipPath></defs><g id="a"><g transform="translate(5 6)"><path d="M.679,0H2.038c.375,0,.679.448.679,1V4c0,.552-.3,1-.679,1H.679C.3,5,0,4.552,0,4V1C0,.448.3,0,.679,0Z" transform="translate(0 9)" fill="#545454"/><path d="M.679,0H2.038c.375,0,.679.448.679,1V4c0,.552-.3,1-.679,1H.679C.3,5,0,4.552,0,4V1C0,.448.3,0,.679,0Z" transform="translate(13.176 9)" fill="#545454"/><path d="M3,0H13a3,3,0,0,1,3,3v8a1,1,0,0,1-1,1H1a1,1,0,0,1-1-1V3A3,3,0,0,1,3,0Z" fill="#96a6b9"/><path d="M2,0H12a2,2,0,0,1,2,2V5a0,0,0,0,1,0,0H0A0,0,0,0,1,0,5V2A2,2,0,0,1,2,0Z" transform="translate(1 1)" fill="#83cbfb"/><circle cx="1" cy="1" r="1" transform="translate(1 7)" fill="#fff"/><circle cx="1" cy="1" r="1" transform="translate(13 7)" fill="#fff"/><rect width="6" height="1" rx="0.5" transform="translate(5 9)" fill="#3a4654"/></g></g></svg>