<svg xmlns="http://www.w3.org/2000/svg" xmlns:xlink="http://www.w3.org/1999/xlink" width="26" height="26" viewBox="0 0 26 26"><defs><clipPath id="b"><rect width="26" height="26"/></clipPath></defs><g id="a"><path d="M1.745,1.12a2.54,2.54,0,0,0,2.087.922c1.548.026,2-1.036,2.267-.922,1.566.639,1.707,2.556,1.71,3.315s0,2.226,0,2.226a.745.745,0,0,1-.745.745H.727A.745.745,0,0,1-.018,6.66s-.024-1.442,0-2.226S-.026,1.766,1.745,1.12Z" transform="translate(3.791 12.463)" fill="#97b4be"/><path d="M1.745,1.12a2.54,2.54,0,0,0,2.087.922c1.548.026,2-1.036,2.267-.922,1.566.639,1.707,2.556,1.71,3.315s0,2.226,0,2.226a.745.745,0,0,1-.745.745H.727A.745.745,0,0,1-.018,6.66s-.024-1.442,0-2.226S-.026,1.766,1.745,1.12Z" transform="translate(14.429 12.463)" fill="#97b4be"/><circle cx="2.592" cy="2.592" r="2.592" transform="translate(5.177 9.006)" fill="#97b4be"/><circle cx="2.592" cy="2.592" r="2.592" transform="translate(15.815 9.006)" fill="#97b4be"/><path d="M2.335,1.123A3.386,3.386,0,0,0,5.117,2.352C7.181,2.386,7.783.97,8.139,1.123c2.088.852,2.276,3.407,2.279,4.418s0,2.967,0,2.967a.994.994,0,0,1-.994.994H.979a.994.994,0,0,1-.994-.994s-.032-1.922,0-2.967S-.025,1.984,2.335,1.123Z" transform="translate(7.71 10.793)" fill="#c2f0ff"/><circle cx="3.518" cy="3.518" r="3.518" transform="translate(9.725 5.706)" fill="#c2f0ff"/></g></svg>